<?xml version="1.0" encoding="utf-8"?>
<!-- Generator: Adobe Illustrator 21.0.0, SVG Export Plug-In . SVG Version: 6.00 Build 0)  -->
<svg version="1.1" id="Camada_1" xmlns="http://www.w3.org/2000/svg" xmlns:xlink="http://www.w3.org/1999/xlink" x="0px" y="0px"
	 viewBox="0 0 1080 1080" style="enable-background:new 0 0 1080 1080;" xml:space="preserve">
<style type="text/css">
	.st0{display:none;}
	.st1{display:inline;}
	.st2{display:inline;fill:#FFFFFF;}
</style>
<g class="st0">
	<path class="st1" d="M436.2,821.3c-14.7-4.1-28.7-8.3-42.8-11.9c-5.1-1.3-10.6-1.1-15.8-1.6c-1.2-0.1-2.5,0.1-3.4-0.4
		c-1.3-0.7-2.3-1.9-3.4-3c1.4-0.8,2.7-2.4,4.1-2.4c4.3,0.1,8.6,0.9,12.9,1.3c17.9,1.4,35.6,0.3,52.5-6.5c20.8-8.3,34.6-23,40.3-45
		c0.4-1.6,2.4-2.9,3.6-4.3c0.6,2,2,4.2,1.5,5.9c-5.6,22.3-19.3,38.2-40.4,47c-10.5,4.4-21.9,6.4-31.7,9.2c26.7,10.5,60.1-4,73.2-33
		c1.6-3.6,2.5-7.6,4.1-11.2c0.7-1.5,2.3-2.6,3.5-3.8c0.5,1.8,1.9,3.8,1.5,5.3c-5.5,19.9-17,35.1-35.7,44.6c-1.3,0.7-2.7,1.2-4.1,1.8
		c-1.2,0.5-2.3,1.1-4,1.9c28.6,1.2,47.5-15.6,49.8-44.2c0.8-10.3,1.4-20.7,0.9-30.9c-0.5-9.5,3.7-15.1,11.6-18.9
		c2.5-1.2,5-2.3,8.4-3.9c-3.3-0.5-5.7-0.7-8-1.4c-1.4-0.4-3.1-1.3-3.8-2.5c-4-6.5-10-9.1-17.2-9.5c-17.2-0.9-30.9,8.6-36.5,25.9
		c-1.7,5.2-4.5,8.4-8.7,11.4c-28.1,19.7-56,39.6-84,59.5c-0.8,0.6-1.6,1.5-2.5,1.7c-1.8,0.3-3.7,0.3-5.6,0.4
		c0.8-1.6,1.2-3.7,2.4-4.6c17.8-12.9,35.7-25.6,53.7-38.3c11-7.8,21.9-15.7,33-23.4c3.2-2.2,5-4.8,6.3-8.5
		c6.9-20.6,23.5-31.4,44.4-29.3c6.8,0.7,12.2,3.7,17,8.6c1.8,1.8,4.4,3.3,6.9,3.8c5.7,1.2,11.5,1.5,17.3,2.5
		c1.6,0.3,3.1,1.8,4.6,2.7c-1.6,1.1-3.1,2.7-4.8,3.3c-6.3,2.1-12.7,3.7-19,5.9c-7.4,2.6-10.9,7.7-10.2,16.1
		c1.1,14.1,0.8,28.3-3,42.1c-5.6,20.2-18.1,32.9-39.3,36.2c-0.9,0.1-1.8,0.7-3.2,2.4c8.5,4.5,16.9,9,24.4,12.9
		c10.4-7.3,20.1-14.2,29.9-21c1.4-0.9,2.9-1.9,4.4-2.2c1.5-0.3,3.2,0.3,4.8,0.5c-0.9,1.5-1.4,3.6-2.6,4.3
		c-12.3,6.5-23.5,14.5-33,24.8c-13.1,14.3-20.4,31-20.5,50.6c0,1.5-1.6,3-2.5,4.5c-0.9-1.5-2.7-3.1-2.5-4.5
		c0.6-7.1,1.2-14.2,2.6-21.2c0.6-3.2,0.3-5.1-2.1-7.3c-9.5-8.7-18.6-17.7-28.1-26.3c-3.6-3.2-5.2-6.1-2.9-10.7
		C435.6,824.8,435.8,822.6,436.2,821.3z M484.1,839.7c-6.6-3.5-13.2-7-19.9-10.4c-3.6-1.8-7.2-3.4-6.5-8.7c-4.3,0-8.1-0.2-11.9,0.1
		c-1.4,0.1-3.6,0.8-3.9,1.7c-0.9,3.1-2.8,8-1.4,9.5c9.6,10,20,19.4,30.1,28.9C475.2,853.7,479.5,847,484.1,839.7z"/>
	<path class="st1" d="M539,666.8c-2.3,0-3.9,0-6.1,0c-0.4-6.5-0.7-12.9-1.2-20.7c-1.8,5.9-3.1,10.6-4.9,15.1c-0.8,2-2.4,4.6-4.1,5
		c-3.7,1-3.2-2.8-3.9-4.9c-1.3-4.4-2.5-8.9-4.9-13.2c0,6.1,0,12.3,0,18.6c-2.5,0-4.1,0-6.3,0c0.5-8.9,0.9-17.6,1.6-26.3
		c0.1-0.8,2.3-2,3.5-2.1c2.3-0.2,5.1-1,6,2.6c1.3,5.1,2.8,10.2,4.5,16.1c1.8-5.8,3.5-10.6,4.7-15.5c1-4.5,4.4-3.7,7-3.1
		c1.2,0.3,2.7,2.9,2.8,4.5C538.4,650.7,538.6,658.5,539,666.8z"/>
	<path class="st1" d="M656.4,657.1c1.7-5.6,3.4-10.5,4.6-15.4c1-4.3,4.2-3.3,7-3.4c3.5-0.1,2.8,2.5,2.9,4.6
		c0.4,7.8,0.8,15.6,1.2,23.9c-2,0.1-3.8,0.2-6,0.3c-0.4-6.4-0.8-12.6-1.2-18.8c-0.2,0-0.4-0.1-0.6-0.1c-1.6,5.1-3.1,10.3-5,15.4
		c-0.5,1.3-2.3,2.7-3.6,2.8c-0.9,0.1-2.6-1.6-3-2.8c-1.6-4.7-2.7-9.5-5-14.4c-0.3,5.7-0.7,11.4-1,17.7c-1.7,0.1-3.5,0.2-5.9,0.3
		c0.5-9.2,0.9-17.9,1.7-26.6c0.1-0.8,2.3-1.9,3.6-2.1c2.3-0.2,5.1-1,5.9,2.7C653.2,646.2,654.8,651.2,656.4,657.1z"/>
	<path class="st1" d="M472.8,522.7c0.8,0.7,1.9,1.2,2.2,1.9c0.3,0.8,0.2,2.1-0.3,2.8c-0.8,1-2,1.7-3.2,2.4
		c-20.4,12.8-40.8,25.6-61.3,38.4c-1.1,0.7-2.3,1.7-3.5,1.8c-1.1,0.1-2.6-0.5-3.3-1.3c-0.4-0.5,0.2-2.2,0.7-3c0.7-0.9,1.8-1.4,2.8-2
		c20.6-12.9,41.1-25.8,61.7-38.7C470,524.2,471.3,523.5,472.8,522.7z"/>
	<path class="st1" d="M460.2,666.8c0-8.7-0.1-16.9,0.1-25.2c0-1.1,1.6-2.9,2.7-3.1c2.9-0.5,6-0.5,8.9-0.2c3.7,0.4,7.2,1.5,8.5,5.7
		c1.3,4.2-0.7,7-3.4,9c1.7,4.6,3.3,9,4.9,13.4c-5.6,2-7.8-0.2-8.5-5.1c-0.5-3.3-1.7-6.3-6.6-4.9c0,3.3,0,6.7,0,10.4
		C464.5,666.8,462.7,666.8,460.2,666.8z M467.2,643.2c0,2.8,0,5.2,0,7.7c3.4,0.2,6.8,0.4,6.9-3.8C474.2,642.6,470.7,643,467.2,643.2
		z"/>
	<path class="st1" d="M456,652.8c-0.1,9-5.6,14.7-14.1,14.6c-8.2-0.1-13.5-6-13.3-14.8c0.2-8.9,5.8-14.7,14.2-14.6
		C450.9,638.1,456.1,643.9,456,652.8z M449.6,652.6c-0.6-7.2-5.3-11.4-10.1-8.8c-5.2,2.9-5.6,14.2-0.5,17.3c3.1,1.9,6.3,1.5,8.2-1.7
		C448.4,657.5,448.8,654.9,449.6,652.6z"/>
	<path class="st1" d="M450,571.1c-4.3-2.3-8.7-4.4-12.8-7c-0.8-0.5-0.5-2.8-0.7-4.2c1.3,0,2.7-0.2,3.9,0.2c1.2,0.4,2.1,1.5,3.3,2.2
		c6.7,4,11.2,2.7,15.5-3.9c5.3-8,10.3-16.3,16.5-23.6c3.2-3.9,8.4-6.2,13-8.7c1.1-0.6,3.4,0.7,5.1,1.2c-1.1,1.3-2.1,2.7-3.5,3.7
		c-3.9,3-8.8,5.1-11.8,8.7c-5.4,6.7-9.8,14.1-14.5,21.4C460.2,567.2,456.2,570,450,571.1z"/>
	<path class="st1" d="M612.8,638.5c2,0,3.7,0,6.2,0c0,5.9-0.2,11.5,0.1,17.1c0.1,2,0.9,4.5,2.3,5.7c3.2,2.8,7.4,0.1,7.6-4.8
		c0.2-5.8,0.1-11.6,0.1-17.8c2.3,0,4.2,0,7,0c-0.3,6.9-0.2,13.7-1,20.4c-0.8,5.7-5,8.4-11.2,8.4c-6.3,0-10.2-2.6-10.9-8.6
		C612.2,652.2,612.8,645.6,612.8,638.5z"/>
	<path class="st1" d="M492.3,643.7c0,2.3,0,3.9,0,5.9c3.4,0,6.5,0,10,0c0.1,1.8,0.2,3.2,0.3,5.2c-3.6,0-6.8,0-10.2,0
		c0,2.5,0,4.4,0,6.8c3.8,0,7.4,0,11.3,0c0.1,1.9,0.2,3.3,0.2,5c-6.1,0-11.8,0-18,0c0-9.2,0-18.4,0-28c5.6,0,11.1,0,17,0
		c0,1.6,0,3.1,0,5.1C499.3,643.7,496,643.7,492.3,643.7z"/>
	<path class="st1" d="M660.2,534.7c-3.9-1.2-7.9-2.2-11.8-3.6c-2.9-1-3.2-2.9-1.7-5.5c5.9-10.2,19.5-13.6,29.6-7.3
		c2.5,1.5,3.1,3,1.4,5.7C674,530,667.4,534,660.2,534.7z M653.2,526.8c8.3,2.9,13.7,1.5,18.3-4.5
		C664.2,519.1,658.8,520.4,653.2,526.8z"/>
	<path class="st1" d="M643.4,509.7c-3,5.7-5.5,11-8.5,16c-1.4,2.4-3.5,1.8-5.4-0.1c-8.3-8.2-8.2-22.3,0.3-30.5
		c2.1-2,4.2-2.5,5.8,0.1C638.3,499.6,640.5,504.3,643.4,509.7z M632.5,519.8c4.8-8.3,4.7-13.7-0.1-18.6
		C627.5,507.4,627.5,513.2,632.5,519.8z"/>
	<path class="st1" d="M642.5,556c-6.1,0-11.2-2.7-15.8-6.5c-2.2-1.8-2.1-3.4-0.2-5.4c8.2-8.6,22.8-8.5,31,0.2c1.9,2,1.8,3.6-0.1,5.5
		C653.7,553.5,647.8,556,642.5,556z M651.6,546.7c-7.2-5-12.6-4.9-18.7,0C639.3,551.4,645.5,551.5,651.6,546.7z"/>
	<path class="st1" d="M571.2,657.4c0,2.9,0,5.9,0,9.2c-2.2,0-4,0-6.4,0c0-8.5-0.1-16.9,0.1-25.3c0-1,1.5-2.7,2.4-2.8
		c3.4-0.3,7-0.4,10.4,0.1c4.6,0.7,7.4,3.5,7.4,8.5c0,5-2.5,8.1-7.3,9.2C575.8,656.8,573.7,657,571.2,657.4z M571.4,643.2
		c0,2.9,0,5.6,0,8.4c3.7,0.7,6.9,0,7.3-4C579.1,643.4,575.7,642.9,571.4,643.2z"/>
	<path class="st1" d="M607.1,638.2c-0.9,3-1.3,4.4-1.7,5.8c-2.4-0.3-4.5-0.9-6.6-0.7c-1.2,0.1-2.3,1.5-3.4,2.4c0.7,1,1.3,2.3,2.3,3
		c1.7,1,3.7,1.5,5.4,2.5c3.4,1.8,6.1,4.7,4.6,8.4c-1.1,2.9-3.9,6.1-6.6,7c-3.7,1.2-8,0.3-12.7,0.3c0.5-2.7,0.7-4.2,1-5.9
		c2.6,0.4,4.9,1.1,7.1,0.9c1.5-0.1,3-1.4,4.4-2.2c-1-1.3-1.7-3-3-3.9c-1.4-1.1-3.8-1.1-4.8-2.4c-1.8-2.3-4.2-5.3-4-7.7
		c0.2-2.4,3-5.7,5.4-6.6C598.1,637.8,602.3,638.4,607.1,638.2z"/>
	<path class="st1" d="M410.2,638.4c1.9,0,3.5,0,5.7,0c0,7.5,0,14.9,0,22.4c4.2,0.6,7.9,1.1,11.5,1.9c0.3,0.1,0.2,2.4,0.3,4
		c-5.9,0-11.5,0-17.5,0C410.2,657.5,410.2,648.2,410.2,638.4z"/>
	<path class="st1" d="M558.8,666.9c-2,0-3.6,0-5.7,0c0-9.4,0-18.7,0-28.4c1.9,0,3.7,0,5.7,0C558.8,647.9,558.8,657.1,558.8,666.9z"
		/>
	<path class="st1" d="M603.2,429.7c5.1,0.9,7.5,2.8,7.3,6.5c-0.2,3.4-2.4,5.7-5.9,5.6c-3.6-0.1-6.3-2.4-5.6-6.1
		C599.6,433.3,602.1,431.3,603.2,429.7z"/>
	<path class="st2" d="M597.9,556c-4.6,7.2-8.9,13.9-13.5,21.1c-10.1-9.5-20.4-18.9-30.1-28.9c-1.4-1.5,0.5-6.4,1.4-9.5
		c0.3-0.9,2.5-1.6,3.9-1.7c3.8-0.2,7.6-0.1,11.9-0.1c-0.7,5.2,2.9,6.9,6.5,8.7C584.8,549,591.3,552.6,597.9,556z"/>
	<path class="st2" d="M467.2,643.2c3.5-0.2,7-0.6,6.9,3.9c-0.1,4.2-3.5,4.1-6.9,3.8C467.2,648.4,467.2,646,467.2,643.2z"/>
	<path class="st2" d="M449.6,652.6c-0.8,2.3-1.2,4.8-2.4,6.9c-2,3.2-5.1,3.5-8.2,1.7c-5.1-3.1-4.7-14.4,0.5-17.3
		C444.3,641.2,449,645.4,449.6,652.6z"/>
	<path class="st2" d="M653.2,526.8c5.6-6.4,11-7.7,18.3-4.5C667,528.3,661.5,529.7,653.2,526.8z"/>
	<path class="st2" d="M632.5,519.8c-5-6.5-5-12.4-0.1-18.6C637.2,506,637.3,511.4,632.5,519.8z"/>
	<path class="st2" d="M651.6,546.7c-6.1,4.7-12.3,4.6-18.7,0C638.9,541.8,644.4,541.8,651.6,546.7z"/>
	<path class="st2" d="M571.4,643.2c4.2-0.3,7.7,0.2,7.3,4.5c-0.3,3.9-3.6,4.6-7.3,4C571.4,648.8,571.4,646.1,571.4,643.2z"/>
</g>
<g>
	<g>
		<path d="M174.8,674.4c44.5-45.5,87.6-92.2,130.7-138.9c28.9-31.3,57.1-63.9,88.8-92.3c1.1-1,2.2-2,3.4-3c0.5-0.4,1.2-0.9,1.6-1.4
			c0.7-0.8-1.8,0.9-0.8,0.6c0.9-0.2,2-1.1,2.8-1.5c1.5-0.8,3.1-1.5,4.6-2.2c0.9-0.4,1.8-0.8,2.7-1.2c0.6-0.3,1.2-0.5,1.7-0.8
			c0.3-0.1,2-0.9,1.2-0.5c10.4-4.4,24.3-9.5,36.3-13.3c14.4-4.6,29.1-8.6,44.1-11c5.5-0.9,12.2-1.6,18.8-1.5c1.5,0,3,0.1,4.5,0.2
			c0.7,0,1.3,0.1,2,0.2c1.4,0.1,0.9,0.1,0.8,0.1c2.5,0.4,4.9,1,7.3,1.8c1.4,0.5-0.2-0.1,0.2,0c0.5,0.3,1.1,0.5,1.6,0.8
			c0.4,0.2,0.9,0.5,1.3,0.8c1.3,0.7,0.2,0.1,0.3,0.1c0.8,0.7,1.5,1.4,2.2,2.2c-1.3-1.5,0.4,0.7,0.8,1.5c0.8,1.4-0.3-1,0.1,0.2
			c0.1,0.5,0.3,1,0.4,1.5c0.1,0.5,0.2,1,0.3,1.6c-0.3-1.6,0-0.3,0,0.5c0,1.3,0,2.6-0.1,4c-0.1,1.4,0.2-0.8-0.1,0.7
			c-0.1,0.8-0.3,1.7-0.5,2.5c-4.1,18.1-15.1,36.1-26.7,50.4c-23.2,28.5-55.2,48.3-89.3,61.2c-14.7,5.5-29.7,10-45,13.4
			c-6.2,1.4-12.5,2.6-18.8,3.7c-2.7,0.4-5.4,0.9-8,1.3c-1.1,0.2-3.7,0.5-2.2,0.3c-1.1,0.1-2.2,0.3-3.3,0.4c-4.7,0.6-9.4,0.8-14,1.3
			c-5.5,0.5-11,5.8-15.4,8.8c-25,16.8-50.1,33.5-75.1,50.3c-21.6,14.5-43.3,29-64.9,43.5c-1.2,0.8-2.4,1.6-3.6,2.4
			c-8,5.3-0.5,18.3,7.6,13c17.4-11.7,34.9-23.4,52.3-35.1c27.8-18.7,55.7-37.3,83.5-56c6.4-4.3,12.9-8.6,19.3-13
			c-1.3,0.3-2.5,0.7-3.8,1c31.6-1.5,64-9.2,93.6-20.2c55.5-20.6,106.9-58.9,126.6-116.9c3.1-9.1,4.5-19.7-0.2-28.5
			c-3.9-7.2-11.5-11.5-19.3-13.2c-20.8-4.8-44,1-64,6.4c-20.1,5.4-39.9,12.5-59,20.7c-4.6,2-9.5,3.9-13.4,7
			c-9.1,7.4-17.4,15.9-25.6,24.2c-25.3,25.6-49.6,52.2-74,78.7c-32.6,35.3-65.2,70.6-98.5,105.3c-8.9,9.3-17.8,18.5-26.8,27.7
			C157.4,670.7,168,681.3,174.8,674.4z"/>
	</g>
</g>
<g>
	<g>
		<path d="M443.3,572.6c24.3-0.2,48.6-14.3,67.5-28.5c27.3-20.5,49.9-47.6,63.5-79c9-20.8,14.1-42.8,15.1-65.4
			c0.4-9.7-14.6-9.6-15,0c-2.8,63.5-44.1,123.2-101.7,149.9c-9.1,4.2-20.7,7.9-29.5,7.9C433.7,557.7,433.7,572.7,443.3,572.6
			L443.3,572.6z"/>
	</g>
</g>
<g>
	<g>
		<path d="M613.9,399.8c-2.6,50.4-22.7,100.1-61.3,133.8c-13.9,12.2-30,21.7-46.8,29.1c-7.1,3.1-3.2,14,3.8,14
			c35.9,0,73.8-2.1,107.5-15.9c25.9-10.6,46.8-28.3,62.3-51.6c18.1-26.9,29.4-58.2,40.3-88.5c10.4-28.8,20.8-62.1,46.7-80.9
			c9.7-7,20.6-9.4,31.9-12.5c10.5-2.8,20.9-5.6,31.4-8.3c6.4-1.7,12.9-3.4,19.3-5c7.2-1.7,7.1-12.7,0-14.5
			c-18.7-4.5-37.4-9-56.2-13.6c1.7,1.7,3.5,3.5,5.2,5.2c-7.7-19.1-23.5-35.7-42.7-43.2c-16.8-6.5-36.6-5-53,2.1
			c-14.7,6.3-24.1,18.4-31.9,31.9c-4.6,7.9-8.9,15.9-14.2,23.3c-6.8,9.5-15.5,17.6-25.1,24.2c-7.9,5.4-0.4,18.4,7.6,13
			c11.9-8.1,22.1-17.9,30.5-29.6c6.5-9.1,11.4-19,17.3-28.5c5-8.1,11-15.2,19.7-19.6c10.2-5.2,23.2-7.2,34.5-5.4
			c16.9,2.8,30.4,14.6,38.8,28c1.3,2.1,2.5,4.2,3.6,6.5c0.3,0.7,0.6,1.4,1,2c0.8,1.5-0.3-0.8-0.3-0.8c1.1,1.2,1.2,2.8,2.7,3.9
			c0.9,0.7,1.5,1,2.6,1.4c0.6,0.2,1.2,0.3,1.8,0.4c2.7,0.7,5.5,1.3,8.2,2c15.4,3.7,30.7,7.4,46.1,11.1c0-4.8,0-9.6,0-14.5
			c-4.8,1.1-9.6,2.4-14.4,3.7c-7.8,2-15.7,4.1-23.5,6.2c-11.3,3-23.2,5.2-34,9.6c-32.5,13.2-49.8,48-61.2,79.1
			c-19.2,52.4-36.8,115.9-89,143.5c-34,18-75.5,20-113.3,20.1c1.3,4.7,2.5,9.3,3.8,14c30.6-13.5,57.2-34.2,77-61.3
			c16.2-22.1,27.2-48.1,33.2-74.9c2.9-13,4.7-26.4,5.4-39.7C629.4,390.1,614.4,390.1,613.9,399.8L613.9,399.8z"/>
	</g>
</g>
<g>
	<g>
		<path d="M477,573.2c-6.3,11.5-12.6,22.9-18.9,34.4c-2.8,5.1-5.8,10.1-8.4,15.2c-1.9,3.8-1,6.2,0.3,9.7
			c10.2,28.5,20.4,57.1,30.5,85.6c3.4,9.7,6.9,19.3,10.3,29c3.2,9,17.7,5.1,14.5-4c-12.3-34.4-24.5-68.8-36.8-103.2
			c-1.8-5-3.5-9.9-5.3-14.9c-0.3,1.9-0.5,3.9-0.8,5.8c9.2-16.7,18.3-33.3,27.5-50C494.6,572.3,481.7,564.7,477,573.2L477,573.2z"/>
	</g>
</g>
<g>
	<g>
		<path d="M597.6,563.1c-5.3,13.7-10.5,27.5-15.8,41.2c-1.4,3.6,1.5,8.6,5.2,9.2c24.1,4.4,48.3,8.7,72.4,13.1
			c9.4,1.7,13.5-12.8,4-14.5c-24.1-4.4-48.3-8.7-72.4-13.1c1.7,3.1,3.5,6.2,5.2,9.2c5.3-13.7,10.5-27.5,15.8-41.2
			C615.5,558.1,601,554.2,597.6,563.1L597.6,563.1z"/>
	</g>
</g>
<g>
	<g>
		<path d="M772.6,581.4c-30.2,3.5-60.2,12.3-88.6,22.8c-61.1,22.6-118.3,57.8-161.7,106.9c-30.7,34.7-53.6,75.4-68,119.4
			c-3,9.2,11.5,13.1,14.5,4c23.4-71.4,70.9-131.4,133.5-172.7c43.4-28.6,91.5-48.4,142-60.1c7.3-1.7,14.6-3.2,22-4.4
			c2-0.3,4-0.6,6-0.9c2.2-0.3-2.2,0.3,0.3,0c4-0.5,7.5-3.1,7.5-7.5C780.1,585.2,776.7,580.9,772.6,581.4L772.6,581.4z"/>
	</g>
</g>
</svg>
